<svg width="289" height="58" viewBox="0 0 289 58" fill="none" xmlns="http://www.w3.org/2000/svg">
<g clip-path="url(#clip0_2515_6001)">
<g clip-path="url(#clip1_2515_6001)">
<path fill-rule="evenodd" clip-rule="evenodd" d="M91.4663 19.3358C86.1332 19.3358 82.1333 23.4618 82.1333 28.795C82.1333 34.1281 86.1332 38.2902 91.4663 38.2902C94.8897 38.2902 97.8625 36.5244 99.4661 33.5516L104.043 36.2722C101.484 40.6504 96.6914 43.4972 91.4663 43.4972C83.2504 43.4792 76.7281 36.9569 76.7281 28.795C76.7281 20.615 83.2504 14.0927 91.4663 14.0927C96.7455 14.0927 101.484 16.9034 104.043 21.3177L99.4661 24.0383C97.8445 21.0655 94.8897 19.3358 91.4663 19.3358Z" fill="white"/>
<path fill-rule="evenodd" clip-rule="evenodd" d="M121.628 32.5065C121.628 29.1733 119.195 26.6509 116.06 26.6509C112.835 26.6509 110.403 29.1733 110.403 32.5065C110.403 35.8398 112.835 38.3622 116.06 38.3622C119.141 38.3622 121.628 35.8398 121.628 32.5065ZM105.16 32.5065C105.16 26.4887 109.988 21.66 116.06 21.66C122.042 21.66 126.871 26.4887 126.871 32.5065C126.871 38.5244 122.042 43.3531 116.06 43.3531C109.988 43.3531 105.16 38.5244 105.16 32.5065Z" fill="white"/>
<path fill-rule="evenodd" clip-rule="evenodd" d="M160.888 30.7769V42.8846H155.663V31.6957C155.663 28.5607 154.131 26.5788 151.825 26.5788C149.465 26.5788 147.735 28.5607 147.735 31.6957V42.8846H142.69V31.6957C142.69 28.5607 141.104 26.5788 138.78 26.5788C136.456 26.5788 134.762 28.5607 134.762 31.6957V42.8846H129.537V22.1645H134.762V24.8131C136.042 22.8312 138.023 21.588 140.456 21.588C143.104 21.588 145.194 23.0834 146.474 25.4077C147.789 23.3356 150.221 21.588 153.284 21.588C157.879 21.588 160.888 25.6419 160.888 30.7769Z" fill="white"/>
<path fill-rule="evenodd" clip-rule="evenodd" d="M179.464 32.7227C179.464 29.2634 177.32 26.777 174.311 26.777C171.374 26.777 169.158 29.1373 169.158 32.6687C169.158 36.1821 171.428 38.5604 174.401 38.5604C177.32 38.5424 179.464 36.11 179.464 32.7227ZM175.41 43.4251C172.527 43.4251 170.401 42.1098 169.176 40.2901V42.8846H163.951V14.0566H169.176V24.6869C170.437 22.9933 172.563 21.7681 175.32 21.7681C180.671 21.7681 184.761 26.3806 184.851 32.5966C184.941 38.8847 180.761 43.4251 175.41 43.4251Z" fill="white"/>
<path fill-rule="evenodd" clip-rule="evenodd" d="M187.013 42.8846H192.238V22.1645H187.013V42.8846ZM186.346 16.2908C186.346 14.5251 187.824 13.1918 189.607 13.1918C191.337 13.1918 192.778 14.5071 192.778 16.2908C192.778 18.0565 191.337 19.3898 189.607 19.3898C187.842 19.3718 186.346 18.0565 186.346 16.2908Z" fill="white"/>
<path fill-rule="evenodd" clip-rule="evenodd" d="M214.76 30.8669V42.8846H209.715V31.984C209.715 28.6508 207.967 26.5788 205.445 26.5788C202.67 26.5788 200.706 29.1012 200.706 32.0741V42.8846H195.661V22.1645H200.706V24.777C202.112 22.8312 204.364 21.588 206.994 21.588C211.643 21.588 214.76 25.5518 214.76 30.8669Z" fill="white"/>
<path fill-rule="evenodd" clip-rule="evenodd" d="M230.615 33.6957V33.2452L225.336 34.2722C223.57 34.6866 222.489 35.5875 222.489 36.7947C222.489 38.0739 223.66 39.0288 225.588 38.9748C228.363 38.8847 230.615 36.4704 230.615 33.6957ZM235.66 30.3805V42.8846H230.615V40.4882C229.084 42.1459 226.687 43.371 224.039 43.4251C220.525 43.4251 217.426 41.1189 217.426 37.155C217.426 33.4074 220.237 31.2633 224.417 30.4345L230.489 29.2814C230.075 27.5517 228.759 26.2364 226.759 26.2364C224.777 26.2364 222.922 27.4796 221.805 29.0472L218.003 26.2905C219.949 23.5699 223.372 21.7501 226.777 21.7501C231.858 21.7141 235.66 25.2275 235.66 30.3805Z" fill="white"/>
<path fill-rule="evenodd" clip-rule="evenodd" d="M246.29 26.8491V35.5335C246.29 37.2271 247.029 38.0019 248.561 38.0019H251.155V42.8666H247.84C243.426 42.8666 241.245 40.7045 241.245 36.1641V26.8491H237.462V22.1645H241.065V17.0476L246.29 15.444V22.1645H251.155V26.8491H246.29Z" fill="white"/>
<path fill-rule="evenodd" clip-rule="evenodd" d="M269.335 32.5065C269.335 29.1733 266.902 26.6509 263.767 26.6509C260.542 26.6509 258.11 29.1733 258.11 32.5065C258.11 35.8398 260.542 38.3622 263.767 38.3622C266.848 38.3622 269.335 35.8398 269.335 32.5065ZM252.867 32.5065C252.867 26.4887 257.695 21.66 263.767 21.66C269.749 21.66 274.578 26.4887 274.578 32.5065C274.578 38.5244 269.749 43.3531 263.767 43.3531C257.695 43.3531 252.867 38.5244 252.867 32.5065Z" fill="white"/>
<path fill-rule="evenodd" clip-rule="evenodd" d="M288.992 21.7141V26.741C284.325 26.741 282.325 29.0112 282.325 31.9841V42.8846H277.28V22.1645H282.325V24.7591C283.749 22.9033 286.037 21.7141 288.992 21.7141Z" fill="white"/>
<path fill-rule="evenodd" clip-rule="evenodd" d="M0 57.6559H57.6559V0H0V57.6559Z" fill="#FB651E"/>
<path fill-rule="evenodd" clip-rule="evenodd" d="M31.1702 31.6927V44.5031H26.3055V31.6927L13.8915 13.1527H19.8192L28.7559 26.846L37.6565 13.1527H43.5842L31.1702 31.6927Z" fill="white"/>
</g>
</g>
<defs>
<clipPath id="clip0_2515_6001">
<rect width="289" height="58" fill="white"/>
</clipPath>
<clipPath id="clip1_2515_6001">
<rect width="289" height="57.6559" fill="white"/>
</clipPath>
</defs>
</svg>
